# AST/ASF file generated using VICON BodyLanguage
# -----------------------------------------------
:version 1.10
:name VICON
:units
  mass 1.0
  length 0.45
  angle deg
:documentation
   .ast/.asf automatically generated from VICON data using
   VICON BodyBuilder and BodyLanguage model FoxedUp or BRILLIANT.MOD
:root
   order TX TY TZ RX RY RZ
   axis XYZ
   position 0 0 0  
   orientation 0 0 0 
:bonedata
  begin
     id 1 
     name lhipjoint
     direction 0.714689 -0.624256 0.315473 
     length 2.45343 
     axis 0 0 0  XYZ
  end
  begin
     id 2 
     name lfemur
     direction 0.34202 -0.939693 0  
     length 6.59069  
     axis 0 0 20  XYZ
    dof rx ry rz
    limits (-160.0 20.0)
           (-70.0 70.0)
           (-60.0 70.0)
  end
  begin
     id 3 
     name ltibia
     direction 0.34202 -0.939693 0   
     length 6.73476   
     axis 0 0 20   XYZ
    dof rx
    limits (-10.0 170.0)
  end
  begin
     id 4 
     name lfoot
     direction 0.0718085 -0.197292 0.977711   
     length 1.52607   
     axis -90 7.62852e-016 20   XYZ
    dof rx rz
    limits (-45.0 90.0)
           (-70.0 20.0)
  end
  begin
     id 5 
     name ltoes
     direction 1.53553e-011 -4.22024e-011 1   
     length 0.777832   
     axis -90 7.62852e-016 20   XYZ
    dof rx
    limits (-90.0 20.0)
  end
  begin
     id 6 
     name rhipjoint
     direction -0.727419 -0.612432 0.309497   
     length 2.50079  
     axis 0 0 0  XYZ 
  end
  begin
     id 7 
     name rfemur
     direction -0.34202 -0.939693 0   
     length 6.51665   
     axis 0 0 -20   XYZ
    dof rx ry rz
    limits (-160.0 20.0)
           (-70.0 70.0)
           (-70.0 60.0)
  end
  begin
     id 8 
     name rtibia
     direction -0.34202 -0.939693 0   
     length 6.48919   
     axis 0 0 -20   XYZ
    dof rx
    limits (-10.0 170.0)
 end
 begin
     id 9 
     name rfoot
     direction -0.112205 -0.308282 0.944655   
     length 1.68717  
     axis -90 -7.62852e-016 -20   XYZ
    dof rx rz
    limits (-45.0 90.0)
           (-20.0 70.0)
  end
  begin
     id 10 
     name rtoes
     direction -1.53583e-011 -4.21993e-011 1   
     length 0.846859   
     axis -90 -7.62852e-016 -20   XYZ
    dof rx
    limits (-90.0 20.0)
  end
  begin
     id 11 
     name lowerback
     direction -0.00119603 0.996364 -0.0851956   
     length 1.67242   
     axis 0 0 0   XYZ
    dof rx ry rz
    limits (-20.0 45.0)
           (-30.0 30.0)
           (-30.0 30.0)
  end
  begin
     id 12 
     name upperback
     direction -0.00531001 0.998318 0.0577248   
     length 1.64819   
     axis 0 0 0   XYZ
    dof rx ry rz
    limits (-20.0 45.0)
           (-30.0 30.0)
           (-30.0 30.0)
  end
  begin
     id 13 
     name thorax
     direction -0.00653676 0.995132 0.0983291   
     length 1.67429   
     axis 0 0 0   XYZ
    dof rx ry rz
    limits (-20.0 45.0)
           (-30.0 30.0)
           (-30.0 30.0)
  end
  begin
     id 14 
     name lowerneck
     direction 0.0141424 0.999886 0.00525412   
     length 1.59623   
     axis 0 0 0   XYZ
    dof rx ry rz
    limits (-20.0 45.0)
           (-30.0 30.0)
           (-30.0 30.0)
  end
  begin
     id 15 
     name upperneck
     direction -0.0640064 0.987178 -0.146232   
     length 1.59576   
     axis 0 0 0   XYZ
    dof rx ry rz
    limits (-20.0 45.0)
           (-30.0 30.0)
           (-30.0 30.0)
  end
  begin
     id 16
     name head
     direction -0.0222942 0.998496 -0.0500859  
     length 1.60959  
     axis 0 0 0   XYZ
    dof rx ry rz
    limits (-20.0 45.0)
           (-30.0 30.0)
           (-30.0 30.0)
  end
  begin
     id 17 
     name lclavicle
     direction 0.908549 0.392612 0.142806  
     length 2.80649  
     axis 0 0 0   XYZ
    dof ry rz
    limits (-20.0 10.0)
           (0.0 20.0)
  end
  begin
     id 18 
     name lhumerus
     direction 1 -4.48968e-011 1.08832e-028   
     length 4.2884   
     axis -180 -30 -90   XYZ
    dof rx ry rz
    limits (-60.0 90.0)
           (-90.0 90.0)
           (-90.0 90.0)
  end
  begin
     id 19
     name lradius
     direction 1 -4.48952e-011 -3.02642e-028   
     length 3.06552   
     axis -180 -30 -90   XYZ
    dof rx
    limits (-10.0 170.0)
  end
  begin
     id 20
     name lwrist
     direction 1 -4.49014e-011 1.58672e-027   
     length 1.53276   
     axis -1.65735e-015 90 90   XYZ
    dof ry
    limits (-180.0 0.0)
 end
  begin
     id 21 
     name lhand
     direction 1 -4.48928e-011 3.17344e-027   
     length 0.753045   
     axis -2.02492e-015 90 90   XYZ
    dof rx rz
    limits (-90.0 90.0)
           (-45.0 45.0)
  end
  begin
     id 22 
     name lfingers
     direction 1 -4.48958e-011 6.34687e-027   
     length 0.607124   
     axis -4.04985e-015 90 90   XYZ
    dof rx
    limits (0.0 90.0)
  end
  begin
     id 23
     name lthumb
     direction 0.707107 -6.34905e-011 0.707107   
     length 0.871712   
     axis -90 45 2.85299e-015   XYZ
    dof rx rz
    limits (-45.0 45.0)
           (-45.0 45.0)
  end
  begin
     id 24 
     name rclavicle
     direction -0.885098 0.45949 0.0739604   
     length 2.9478  
     axis 0 0 0   XYZ 
    dof ry rz
    limits (-10.0 20.0)
           (-20.0 0.0)
  end
  begin
     id 25 
     name rhumerus
     direction -1 -4.4898e-011 -2.61739e-027  
     length 4.52172   
     axis -180 30 90   XYZ
    dof rx ry rz
    limits (-90.0 60.0)
           (-90.0 90.0)
           (-90.0 90.0)
  end
  begin
     id 26 
     name rradius
     direction -1 -4.48945e-011 9.02552e-028   
     length 2.8914   
     axis -180 30 90   XYZ
    dof rx
    limits (-10.0 170.0)
  end
  begin
     id 27 
     name rwrist
     direction -1 -4.49018e-011 1.58672e-027   
     length 1.4457   
     axis -1.65735e-015 -90 -90   XYZ
    dof ry
    limits (-180.0 0.0)
  end
  begin
     id 28
     name rhand
     direction -1 -4.48825e-011 3.17344e-027   
     length 0.680541   
     axis -2.02492e-015 -90 -90   XYZ
    dof rx rz
    limits (-90.0 90.0)
           (-45.0 45.0)
  end
  begin
     id 29
     name rfingers
     direction -1 -4.49067e-011 6.34687e-027   
     length 0.54867   
     axis -4.04985e-015 -90 -90   XYZ
    dof rx
    limits (0.0 90.0)
  end
  begin
     id 30
     name rthumb
     direction -0.707107 -6.34833e-011 0.707107   
     length 0.787783   
     axis -90 -45 -2.85299e-015   XYZ
    dof rx rz
    limits (-45.0 45.0)
           (-45.0 45.0)
  end
:hierarchy
  begin
    root lhipjoint rhipjoint lowerback
    lhipjoint lfemur
    lfemur ltibia
    ltibia lfoot
    lfoot ltoes
    rhipjoint rfemur
    rfemur rtibia
    rtibia rfoot
    rfoot rtoes
    lowerback upperback
    upperback thorax
    thorax lowerneck lclavicle rclavicle
    lowerneck upperneck
    upperneck head
    lclavicle lhumerus
    lhumerus lradius
    lradius lwrist
    lwrist lhand lthumb
    lhand lfingers
    rclavicle rhumerus
    rhumerus rradius
    rradius rwrist
    rwrist rhand rthumb
    rhand rfingers
  end

#!OML:ASF E:\emotionWalksFemale\Project 1\Capture day 1\Session 1\Female1.ASF
:FULLY-SPECIFIED
:DEGREES
176
root 9.50837 14.1877 24.7278 -146.734 -6.08153 -180.661
lowerback 30.4869 0.532723 1.9828
upperback 4.36229 0.384254 0.421108
thorax -11.8628 -0.305154 -0.733429
lowerneck -11.2916 -2.76961 -4.28826
upperneck -16.0947 -4.66298 6.51183
head -3.07783 -3.16585 2.91664
rclavicle 2.38542e-015 -5.76476e-015
rhumerus -92.4501 37.8771 -90.5123
rradius 55.3958
rwrist 6.73966
rhand 3.2893 -45.9889
rfingers 7.12502
rthumb 28.737 -73.7976
lclavicle 2.38542e-015 -5.76476e-015
lhumerus -66.1687 -23.1298 40.3213
lradius 42.1172
lwrist -2.01767
lhand 2.07477 -41.9291
lfingers 7.12502
lthumb 27.5761 -13.9293
rfemur -67.3362 3.21077 25.677
rtibia 58.7191
rfoot -26.3147 -21.9014
rtoes 8.36275
lfemur -73.1601 -2.91288 -20.0603
ltibia 61.7198
lfoot -21.7718 2.47282
ltoes -33.6372
177
root 9.51275 14.1528 24.7246 -146.443 -6.09266 -180.584
lowerback 30.9607 0.566327 2.00433
upperback 4.15273 0.400335 0.442537
thorax -11.5076 -0.314728 -0.674689
lowerneck -11.6862 -2.75406 -4.20736
upperneck -15.9986 -4.67059 6.38558
head -2.98087 -3.17614 2.84315
rclavicle -1.15295e-014 -2.08724e-014
rhumerus -93.0774 37.4363 -90.6403
rradius 54.9563
rwrist 6.93502
rhand 3.98773 -45.4413
rfingers 7.12502
rthumb 29.404 -73.1349
lclavicle -1.15295e-014 -2.08724e-014
lhumerus -66.7299 -22.908 39.4271
lradius 41.8539
lwrist -2.16103
lhand 2.15858 -42.1124
lfingers 7.12502
lthumb 27.6562 -14.1254
rfemur -67.9615 3.42386 25.6678
rtibia 59.3262
rfoot -26.6792 -22.0379
rtoes 8.34275
lfemur -73.9235 -2.74088 -20.287
ltibia 62.4234
lfoot -22.0091 3.02837
ltoes -34.1785
178
root 9.51513 14.1137 24.7191 -146.2 -6.12755 -180.484
lowerback 31.237 0.607443 2.10889
upperback 4.42796 0.42847 0.469196
thorax -11.312 -0.326706 -0.708815
lowerneck -11.9196 -2.75146 -4.29885
upperneck -16.0605 -4.66441 6.50105
head -2.96031 -3.18332 2.89587
rclavicle 1.59028e-014 -8.15017e-015
rhumerus -93.7958 37.0075 -90.7721
rradius 54.6654
rwrist 7.04972
rhand 4.34247 -45.1619
rfingers 7.12502
rthumb 29.7426 -72.7955
lclavicle 1.59028e-014 -8.15017e-015
lhumerus -67.19 -22.7473 38.5678
lradius 41.5485
lwrist -2.21824
lhand 2.51463 -42.0927
lfingers 7.12502
lthumb 27.9967 -14.1608
rfemur -68.5251 3.61238 25.7068
rtibia 59.9022
rfoot -27.1378 -22.0737
rtoes 8.49586
lfemur -74.5636 -2.65959 -20.356
ltibia 63.0237
lfoot -22.4569 3.35013
ltoes -33.3983
179
root 9.51772 14.0711 24.7137 -145.916 -6.23174 -180.383
lowerback 31.7119 0.567059 2.32713
upperback 4.41339 0.438807 0.417805
thorax -11.5217 -0.33962 -0.882505
lowerneck -11.7627 -2.7461 -4.2952
upperneck -16.0639 -4.62251 6.67197
head -2.9863 -3.16003 2.95953
rclavicle 8.34896e-015 1.41137e-014
rhumerus -95.1691 36.5367 -91.5031
rradius 54.371
rwrist 7.37649
rhand 4.3157 -45.1297
rfingers 7.12502
rthumb 29.7171 -72.7678
lclavicle 8.34896e-015 1.41137e-014
lhumerus -67.5482 -22.6452 37.489
lradius 40.8556
lwrist -2.84151
lhand 2.96869 -42.0843
lfingers 7.12502
lthumb 28.4306 -14.2241
rfemur -69.1443 3.74663 25.7967
rtibia 60.4807
rfoot -27.426 -22.1412
rtoes 8.93777
lfemur -75.1909 -2.67291 -20.2972
ltibia 63.536
lfoot -22.8498 3.67084
ltoes -33.2248
180
root 9.52152 14.0356 24.7083 -145.55 -6.34099 -180.312
lowerback 31.9457 0.560512 2.40226
upperback 4.52984 0.432496 0.452324
thorax -11.4861 -0.355745 -0.88107
lowerneck -11.8902 -2.77749 -4.26366
upperneck -15.979 -4.65119 6.75998
head -2.93145 -3.17489 2.97615
rclavicle -8.74653e-015 -4.17448e-015
rhumerus -96.2955 36.3095 -92.1372
rradius 54.0683
rwrist 7.60594
rhand 4.64418 -44.8807
rfingers 7.12502
rthumb 30.0305 -72.4624
lclavicle -8.74653e-015 -4.17448e-015
lhumerus -67.7711 -22.0747 36.2884
lradius 40.0341
lwrist -3.89897
lhand 3.43674 -42.0949
lfingers 7.12502
lthumb 28.8778 -14.3102
rfemur -69.8364 3.84786 25.8658
rtibia 61.0581
rfoot -27.6457 -22.2542
rtoes 9.2474
lfemur -75.7969 -2.73879 -20.1973
ltibia 63.9613
lfoot -23.2427 3.92708
ltoes -32.2218
181
root 9.52278 13.9983 24.7024 -145.153 -6.41215 -180.177
lowerback 32.2447 0.546766 2.43424
upperback 4.53432 0.429176 0.526379
thorax -11.604 -0.36452 -0.81578
lowerneck -12.033 -2.76352 -4.25789
upperneck -15.7478 -4.60658 6.79721
head -2.82759 -3.13917 2.97515
rclavicle -5.96354e-015 1.39149e-014
rhumerus -97.6742 36.2275 -92.8682
rradius 53.8837
rwrist 7.84035
rhand 5.36267 -44.6603
rfingers 7.12502
rthumb 30.7158 -72.1156
lclavicle -5.96354e-015 1.39149e-014
lhumerus -68.2593 -21.481 35.2093
lradius 39.2908
lwrist -5.10569
lhand 3.54838 -41.8847
lfingers 7.12502
lthumb 28.9844 -14.1183
rfemur -70.5901 3.92155 26.0559
rtibia 61.6674
rfoot -27.869 -22.4157
rtoes 8.72863
lfemur -76.395 -2.7691 -20.0064
ltibia 64.3241
lfoot -23.7882 3.9986
ltoes -30.1438
182
root 9.52319 13.9568 24.6937 -144.829 -6.43205 -180.047
lowerback 32.328 0.602678 2.43768
upperback 4.75364 0.46612 0.641964
thorax -11.3902 -0.361005 -0.705547
lowerneck -11.9548 -2.68597 -4.32457
upperneck -15.884 -4.50693 6.73141
head -2.8954 -3.09245 2.97519
rclavicle -1.43125e-014 -5.76476e-015
rhumerus -98.6726 36.0727 -93.292
rradius 53.7128
rwrist 8.10307
rhand 5.72725 -44.7189
rfingers 7.12502
rthumb 31.0634 -72.1082
lclavicle -1.43125e-014 -5.76476e-015
lhumerus -68.8473 -21.1556 34.606
lradius 38.8049
lwrist -5.6514
lhand 3.49138 -41.9373
lfingers 7.12502
lthumb 28.93 -14.1615
rfemur -71.2813 4.06179 26.2043
rtibia 62.3079
rfoot -28.0307 -22.6483
rtoes 7.61368
lfemur -76.8607 -2.7554 -19.833
ltibia 64.6061
lfoot -24.4468 4.19072
ltoes -29.7741
183
root 9.52298 13.913 24.684 -144.578 -6.41434 -180.044
lowerback 32.5964 0.654353 2.36437
upperback 4.97313 0.46414 0.743753
thorax -11.2543 -0.377704 -0.552744
lowerneck -12.0054 -2.61455 -4.49151
upperneck -15.9481 -4.40715 6.65578
head -2.91527 -3.03807 2.98352
rclavicle -8.74653e-015 -5.56597e-015
rhumerus -99.2636 35.8391 -93.6286
rradius 53.1458
rwrist 8.49669
rhand 5.46002 -44.6742
rfingers 7.12502
rthumb 30.8087 -72.1119
lclavicle -8.74653e-015 -5.56597e-015
lhumerus -69.5302 -20.9285 34.1657
lradius 38.4453
lwrist -6.02664
lhand 3.74017 -42.246
lfingers 7.12502
lthumb 29.1676 -14.5112
rfemur -71.8983 4.11438 26.238
rtibia 62.9557
rfoot -28.1014 -22.8058
rtoes 6.74794
lfemur -77.1224 -2.8262 -19.7624
ltibia 64.7995
lfoot -25.2461 4.51446
ltoes -29.9649
184
root 9.51745 13.8678 24.6749 -144.333 -6.40739 -180.062
lowerback 33.0885 0.542537 2.34885
upperback 4.96623 0.300526 0.689618
thorax -11.4639 -0.462538 -0.534912
lowerneck -11.9712 -2.453 -4.38062
upperneck -15.7879 -4.17771 6.64673
head -2.87971 -2.91622 2.96021
rclavicle 8.34896e-015 5.96354e-016
rhumerus -99.8715 35.62 -94.2524
rradius 52.3493
rwrist 9.17894
rhand 5.51407 -44.3314
rfingers 7.12502
rthumb 30.8602 -71.7594
lclavicle 8.34896e-015 5.96354e-016
lhumerus -70.5515 -20.689 33.4073
lradius 38.1475
lwrist -6.87132
lhand 4.12775 -42.3752
lfingers 7.12502
lthumb 29.5377 -14.7052
rfemur -72.4986 4.07215 26.2755
rtibia 63.5778
rfoot -28.2073 -22.854
rtoes 6.62976
lfemur -77.3247 -2.99614 -19.6598
ltibia 64.9857
lfoot -26.1273 4.7295
ltoes -29.1812
185
root 9.51343 13.8333 24.6639 -144.052 -6.40064 -180.011
lowerback 33.4914 0.61072 2.25721
upperback 4.96419 0.363126 0.822274
thorax -11.628 -0.439386 -0.364495
lowerneck -11.1171 -2.39704 -4.45398
upperneck -16.2263 -4.08871 6.62146
head -3.18475 -2.87392 3.0075
rclavicle -1.03368e-014 -1.59028e-015
rhumerus -100.767 35.225 -94.3405
rradius 52.1088
rwrist 9.75365
rhand 6.29224 -43.802
rfingers 7.12502
rthumb 31.6017 -71.087
lclavicle -1.03368e-014 -1.59028e-015
lhumerus -71.5015 -20.9046 33.3524
lradius 37.8435
lwrist -7.33859
lhand 4.31928 -41.8815
lfingers 7.12502
lthumb 29.7205 -14.244
rfemur -73.048 4.19959 26.2505
rtibia 64.1113
rfoot -28.5099 -22.8294
rtoes 7.38589
lfemur -77.6247 -3.09474 -19.5138
ltibia 65.2063
lfoot -26.8096 4.76371
ltoes -28.5312
